<?xml version="1.0" standalone="no"?>
<!DOCTYPE svg PUBLIC "-//W3C//DTD SVG 20010904//EN"
 "http://www.w3.org/TR/2001/REC-SVG-20010904/DTD/svg10.dtd">
<svg version="1.0" xmlns="http://www.w3.org/2000/svg"
 width="2000.000000pt" height="2000.000000pt" viewBox="0 0 2000.000000 2000.000000"
 preserveAspectRatio="xMidYMid meet">

<g transform="translate(0.000000,2000.000000) scale(0.100000,-0.100000)"
fill="#000000" stroke="none">
<path d="M7095 19600 c-159 -82 -205 -127 -205 -200 0 -82 82 -157 161 -147
48 6 238 110 279 152 83 85 27 229 -93 242 -37 4 -56 -2 -142 -47z"/>
<path d="M11387 19509 c-578 -21 -1173 -105 -1697 -240 -376 -96 -528 -143
-940 -293 -205 -74 -667 -280 -870 -388 -890 -474 -1565 -982 -2238 -1686
-568 -593 -1033 -1254 -1407 -2002 -247 -493 -452 -1033 -595 -1567 -16 -58
-31 -107 -34 -110 -11 -12 0 -24 -747 807 -379 422 -454 497 -591 591 -259
177 -744 350 -1123 400 -127 16 -348 7 -450 -20 -243 -64 -401 -209 -499 -454
-104 -262 -99 -666 14 -1141 57 -241 124 -416 220 -571 71 -116 97 -147 455
-545 134 -149 260 -290 444 -496 68 -76 199 -222 291 -324 92 -102 308 -341
479 -532 300 -335 311 -349 311 -388 0 -38 -32 -318 -65 -570 -9 -63 -19 -118
-23 -122 -5 -5 -37 -19 -73 -32 -158 -57 -296 -144 -422 -265 -134 -129 -239
-284 -306 -453 -37 -91 -39 -140 -8 -190 12 -20 121 -145 242 -278 121 -133
221 -250 223 -261 2 -11 -19 -86 -47 -167 -27 -81 -106 -312 -175 -514 -68
-201 -129 -375 -134 -385 -6 -10 -40 -31 -78 -47 -341 -148 -592 -379 -767
-706 -95 -178 -92 -194 71 -377 360 -404 335 -372 328 -411 -5 -36 -69 -258
-247 -862 -141 -482 -144 -499 -114 -629 25 -105 69 -173 210 -325 200 -216
264 -251 460 -251 105 0 127 3 175 25 95 41 115 57 550 445 75 66 205 181 290
255 85 74 181 160 215 190 33 30 150 134 260 230 421 370 803 707 1184 1043
499 441 656 577 668 577 7 0 23 -14 35 -32 542 -757 1167 -1395 1891 -1932
541 -400 1161 -749 1777 -999 199 -81 747 -281 870 -317 74 -22 77 -25 212
-158 76 -75 140 -144 144 -154 3 -10 -12 -53 -34 -100 -22 -46 -122 -254 -222
-463 -100 -209 -235 -490 -300 -625 -65 -135 -156 -325 -204 -423 -115 -238
-128 -279 -129 -397 0 -76 5 -109 26 -167 28 -81 97 -185 154 -233 54 -44 163
-96 230 -111 76 -15 213 -6 285 20 89 31 144 73 394 298 127 114 329 296 450
404 120 108 333 298 473 423 180 161 258 225 270 221 9 -3 150 -83 314 -177
164 -94 316 -177 338 -185 78 -26 96 -16 344 207 403 362 413 374 401 453 -4
21 -72 187 -152 368 -80 181 -144 333 -142 339 8 25 195 181 228 190 19 5 127
21 240 35 410 52 657 99 1015 190 1161 297 2190 806 3129 1547 435 344 954
861 1303 1300 602 755 1041 1553 1370 2488 209 594 375 1383 428 2030 30 378
39 666 27 861 -7 101 -17 270 -23 374 -25 438 -114 1010 -230 1470 -425 1685
-1348 3173 -2669 4305 -690 591 -1479 1069 -2309 1400 -444 177 -845 300
-1311 404 -350 78 -743 136 -1125 166 -129 10 -654 31 -700 28 -11 -1 -118 -5
-238 -9z m973 -333 c917 -90 1670 -279 2460 -618 191 -82 567 -264 702 -340
l78 -44 -88 -64 c-48 -36 -139 -110 -202 -166 -378 -331 -625 -699 -770 -1149
-24 -71 -58 -160 -77 -196 -90 -173 -266 -313 -463 -369 -41 -11 -131 -25
-200 -30 -676 -55 -878 -79 -1174 -141 -287 -61 -482 -124 -646 -210 -223
-117 -430 -347 -564 -630 -50 -105 -67 -155 -141 -404 -74 -249 -210 -427
-420 -554 -108 -65 -265 -217 -316 -306 -95 -164 -139 -344 -139 -567 0 -114
-1 -118 -22 -123 -93 -21 -1094 -195 -1108 -193 -10 2 -116 113 -235 246 -120
134 -232 252 -249 263 -40 24 -99 24 -201 0 -405 -97 -709 -353 -851 -716 -15
-38 -28 -71 -28 -72 -2 -3 -1073 -243 -1086 -243 -8 0 -116 114 -240 254 -124
139 -240 264 -259 277 -27 18 -47 24 -85 22 -100 -3 -348 -110 -496 -214 -153
-108 -332 -317 -411 -481 l-23 -48 -211 0 c-117 0 -279 -3 -361 -6 l-150 -7
-262 291 c-144 160 -262 296 -262 302 0 27 95 389 150 573 33 109 60 200 60
202 0 2 42 -38 93 -89 105 -105 204 -162 341 -196 190 -48 459 -13 847 109
224 70 308 85 454 78 66 -2 163 -14 215 -25 417 -91 748 -50 1024 126 102 65
150 107 231 205 90 109 168 257 230 437 93 269 229 451 431 572 47 28 151 74
254 111 219 80 343 140 475 228 362 242 535 557 535 973 0 284 -65 491 -255
816 -60 102 -85 162 -118 280 -18 63 -21 103 -21 255 0 179 0 181 41 335 47
179 59 247 68 385 6 89 -3 230 -21 344 l-6 38 80 31 c94 36 372 125 550 176
501 145 1052 240 1652 286 188 14 998 5 1190 -14z m-3766 -648 c18 -155 1
-321 -53 -517 -79 -284 -81 -547 -6 -806 28 -98 102 -256 190 -405 132 -225
184 -455 151 -674 -8 -57 -25 -132 -36 -167 -88 -264 -354 -478 -765 -619
-248 -84 -415 -187 -566 -348 -137 -145 -230 -307 -304 -527 -132 -396 -362
-583 -740 -602 -126 -6 -242 7 -400 45 -98 23 -130 26 -295 26 -212 1 -223 -1
-518 -94 -255 -80 -407 -110 -551 -110 -85 0 -125 5 -167 20 -116 40 -224 154
-285 299 l-29 69 35 91 c91 235 277 620 436 904 247 438 530 843 879 1258 172
205 612 652 815 829 534 465 1096 844 1717 1156 140 71 465 222 479 223 3 1 9
-23 13 -51z m-7404 -3824 c217 -38 500 -128 719 -230 112 -53 233 -132 319
-211 35 -32 492 -535 1015 -1118 524 -583 967 -1070 986 -1082 34 -23 36 -23
375 -22 188 0 413 4 501 7 202 9 208 12 272 151 117 252 276 418 508 527 97
46 97 46 117 26 11 -11 120 -131 242 -268 195 -220 226 -251 265 -263 42 -13
59 -10 695 134 358 81 670 156 693 167 49 23 72 56 103 153 75 233 227 413
435 517 55 28 189 78 209 78 6 0 111 -111 231 -247 121 -135 234 -254 250
-265 17 -10 49 -18 73 -18 24 0 356 56 738 125 381 69 703 125 714 125 12 0
44 -10 71 -21 39 -17 70 -46 156 -143 116 -133 133 -162 133 -233 0 -89 -14
-105 -416 -473 -3224 -2950 -3420 -3131 -3442 -3172 -30 -56 -25 -113 14 -165
56 -75 3887 -4809 3918 -4842 35 -38 82 -61 124 -61 16 0 477 160 1023 355
547 194 1013 357 1036 361 122 19 237 -87 238 -222 0 -51 -5 -68 -30 -107 -19
-29 -302 -290 -785 -724 -415 -373 -761 -691 -767 -706 -29 -64 -20 -96 138
-451 l150 -339 -28 -28 c-78 -75 -355 -319 -362 -319 -5 0 -149 82 -321 181
-172 100 -328 185 -349 190 -68 16 -102 -3 -255 -139 -78 -70 -418 -374 -755
-677 -337 -302 -626 -558 -642 -569 -81 -51 -185 -39 -259 30 -27 25 -52 60
-60 83 -30 92 -38 74 459 1104 492 1019 485 1003 449 1070 -15 30 -253 269
-2684 2709 -1936 1943 -1800 1813 -1893 1788 -30 -8 -434 -359 -1972 -1716
-1064 -938 -1947 -1714 -1964 -1725 -45 -29 -108 -34 -160 -14 -36 13 -70 44
-162 146 -65 72 -124 142 -132 157 -30 57 -17 110 188 811 111 376 201 697
201 713 0 16 -6 43 -14 61 -10 25 -181 222 -429 495 l-21 22 24 43 c39 72 157
222 224 285 123 115 259 198 431 263 55 21 101 46 120 65 25 26 63 126 249
669 133 389 218 652 218 674 0 20 -5 48 -10 62 -6 14 -108 133 -227 265 -120
131 -226 249 -237 260 -19 22 -19 22 13 85 78 157 208 295 359 382 57 33 200
90 265 106 61 15 113 53 130 95 7 17 39 242 70 500 48 388 56 474 46 505 -8
26 -257 310 -932 1061 -507 564 -951 1059 -986 1100 -128 148 -205 301 -267
525 -81 296 -111 512 -103 759 4 135 10 187 27 246 27 94 72 180 121 230 111
115 331 152 609 104z m10134 -849 c223 -45 419 -126 606 -250 231 -153 377
-339 425 -542 15 -62 16 -81 5 -138 -42 -221 -325 -587 -889 -1149 l-200 -200
-77 59 c-42 33 -134 114 -203 182 l-126 122 95 87 c206 190 278 268 314 343
69 145 70 304 2 447 -35 74 -193 265 -297 358 -55 49 -152 101 -214 114 -54
11 -61 38 -47 182 17 170 76 328 144 386 29 23 35 24 185 24 126 0 179 -5 277
-25z m-334 -2461 c150 -125 319 -233 515 -329 278 -136 470 -197 808 -255 224
-39 322 -67 461 -134 249 -119 448 -308 568 -542 26 -49 78 -182 116 -294 81
-236 127 -355 206 -527 204 -445 482 -823 770 -1047 255 -199 499 -304 856
-368 109 -20 158 -23 390 -23 291 0 382 10 604 66 227 56 335 94 566 197 187
84 256 102 390 102 238 0 407 -87 558 -285 125 -164 246 -278 419 -396 107
-73 296 -172 401 -209 34 -13 62 -27 62 -33 0 -15 -147 -266 -249 -427 -231
-361 -487 -699 -790 -1039 -103 -117 -555 -569 -617 -618 l-39 -31 -2 114 c-7
377 -153 617 -448 735 -111 44 -229 67 -410 78 -191 13 -261 28 -371 82 -154
75 -188 111 -554 580 -335 430 -633 692 -935 821 -121 52 -221 83 -356 109
-150 30 -484 33 -619 6 -400 -80 -712 -320 -986 -760 -132 -211 -239 -309
-413 -376 -119 -46 -212 -55 -397 -41 -696 55 -1194 -236 -1388 -809 l-22 -64
-61 74 c-234 284 -2513 3105 -2513 3110 0 4 703 651 1562 1438 l1562 1430 125
-124 c69 -68 173 -163 231 -211z m2741 -3975 c298 -30 553 -146 805 -368 121
-105 252 -253 437 -491 325 -421 365 -465 504 -560 175 -122 346 -176 598
-190 185 -11 203 -13 308 -47 130 -42 208 -118 248 -241 33 -102 38 -300 10
-457 -32 -187 -28 -180 -144 -264 -455 -333 -770 -528 -1204 -745 -517 -258
-981 -437 -1508 -580 -278 -75 -911 -206 -903 -186 2 4 185 171 408 372 250
226 418 385 438 416 143 213 116 500 -62 676 -115 113 -246 162 -411 153 -88
-5 -114 -14 -1020 -336 -511 -182 -940 -336 -952 -341 -21 -9 -55 31 -480 557
l-458 566 3 46 c4 65 37 201 68 279 110 279 300 444 602 524 82 22 105 23 432
24 319 1 351 2 422 22 321 88 523 248 713 562 187 309 434 517 694 585 125 32
288 41 452 24z m-4775 -3747 c-4 -3 -221 80 -356 136 -417 173 -839 398 -1270
675 -766 493 -1481 1158 -2039 1896 -69 91 -146 195 -172 233 l-47 69 101 92
c56 51 163 146 237 211 l134 120 1707 -1715 c939 -943 1706 -1715 1705 -1717z"/>
<path d="M10290 10279 c-340 -51 -803 -335 -1110 -681 -352 -396 -522 -786
-507 -1163 4 -114 9 -143 40 -236 19 -58 50 -135 67 -170 135 -266 370 -475
706 -628 375 -171 912 -219 1344 -120 435 99 764 328 920 639 202 403 181 892
-61 1379 -120 243 -252 425 -442 607 -309 298 -629 422 -957 373z m285 -324
c302 -79 640 -407 835 -810 258 -533 195 -1069 -156 -1333 -404 -305 -1116
-353 -1661 -113 -282 124 -477 314 -563 549 -121 327 35 758 429 1185 131 142
378 330 544 413 222 112 416 149 572 109z"/>
<path d="M6488 19234 c-103 -53 -490 -326 -710 -501 -38 -29 -101 -79 -140
-110 -324 -257 -1054 -978 -1340 -1323 -543 -655 -1045 -1460 -1367 -2192 -90
-204 -95 -231 -62 -296 25 -48 67 -72 128 -72 85 0 109 25 182 192 87 197 300
622 405 807 246 433 522 842 820 1216 321 402 467 566 777 869 363 355 807
713 1316 1060 94 65 179 129 189 144 10 15 20 50 22 77 5 60 -24 110 -78 137
-47 24 -86 22 -142 -8z"/>
<path d="M19524 6169 c-38 -11 -53 -28 -149 -169 -500 -734 -1078 -1372 -1765
-1945 -866 -722 -1885 -1288 -2965 -1647 -148 -49 -284 -98 -301 -109 -83 -51
-82 -190 1 -245 49 -32 92 -28 249 21 1159 361 2271 970 3236 1772 441 367
1053 1001 1421 1473 200 256 454 623 464 672 16 73 -33 158 -103 178 -42 11
-46 11 -88 -1z"/>
<path d="M13735 2153 c-240 -52 -273 -63 -315 -108 -21 -23 -25 -36 -25 -90 0
-54 4 -67 25 -90 59 -63 94 -67 272 -29 151 31 201 53 228 96 30 47 24 137
-11 174 -42 46 -104 62 -174 47z"/>
</g>
</svg>
